<?xml version="1.0" standalone="no"?>
<!DOCTYPE svg PUBLIC "-//W3C//DTD SVG 20010904//EN"
 "http://www.w3.org/TR/2001/REC-SVG-20010904/DTD/svg10.dtd">
<svg version="1.0" xmlns="http://www.w3.org/2000/svg"
 width="311.000000pt" height="431.000000pt" viewBox="0 0 311.000000 431.000000"
 preserveAspectRatio="xMidYMid meet">

<g transform="translate(0.000000,431.000000) scale(0.100000,-0.100000)"
fill="#000000" stroke="none">
<path d="M0 2160 l0 -2150 298 0 298 0 89 65 c50 36 141 107 203 158 63 50
120 93 128 95 18 4 18 -25 0 -69 -19 -46 -24 -91 -10 -96 7 -2 14 14 18 38 11
72 32 109 60 109 13 0 32 -3 41 -6 22 -9 50 -68 65 -136 19 -96 47 -112 176
-103 92 7 130 24 57 26 -28 0 -33 2 -19 8 17 6 12 12 -33 41 -28 19 -50 39
-47 45 2 7 1 27 -4 46 -7 30 -8 27 -9 -26 -1 -50 2 -62 19 -73 12 -7 18 -17
15 -22 -8 -13 -55 -13 -55 0 0 6 -7 10 -15 10 -21 0 -35 33 -35 84 0 62 -13
90 -53 113 -26 16 -37 31 -47 68 -15 52 -10 67 31 97 18 14 44 18 107 19 60 1
82 5 82 14 0 7 -8 11 -17 9 -29 -7 -148 11 -146 21 1 6 18 55 37 110 18 55 41
126 51 157 9 32 21 60 26 64 5 3 9 29 9 57 0 66 28 128 66 147 60 30 85 56
109 108 14 30 25 61 25 69 0 11 19 13 95 12 78 -1 93 -4 84 -15 -6 -7 -18 -10
-27 -7 -12 3 -13 2 -4 -4 10 -7 8 -15 -9 -34 -24 -27 -52 -85 -94 -199 -30
-80 -41 -109 -73 -180 -11 -25 -27 -63 -36 -85 l-17 -40 33 32 33 32 440 2
440 1 57 -71 c94 -119 101 -139 93 -252 -7 -103 -8 -100 53 -194 77 -121 91
-132 46 -38 -30 65 -26 83 19 83 50 0 96 -19 150 -62 28 -22 60 -38 75 -38 35
0 119 59 128 90 3 14 9 19 11 13 3 -7 11 -13 19 -13 19 0 77 30 71 36 -10 10
-113 21 -127 14 -10 -6 -26 -1 -47 11 -31 20 -31 20 -26 -1 5 -18 21 -25 47
-21 5 1 5 -6 1 -16 -4 -10 -10 -26 -12 -35 -3 -11 -15 -18 -30 -18 -26 0 -143
55 -154 71 -3 6 -29 13 -58 18 -43 7 -61 16 -94 49 -23 23 -37 45 -33 49 5 4
11 3 13 -4 3 -9 12 -9 29 -2 17 6 32 5 45 -1 27 -15 25 7 -3 30 -23 19 -23 19
-3 34 11 8 26 16 33 16 7 0 22 5 33 11 16 8 18 13 8 25 -10 13 -15 12 -33 -4
-12 -11 -33 -22 -48 -26 -24 -6 -31 -1 -61 44 -19 27 -37 47 -40 43 -4 -3 -7
3 -7 14 0 11 -9 28 -20 38 -11 10 -20 24 -20 32 0 7 -9 13 -20 13 -11 0 -20 4
-20 8 0 5 -17 27 -37 49 -21 22 -48 55 -61 74 -12 19 -47 69 -77 112 -90 128
-105 170 -109 309 l-3 78 91 29 91 29 6 -67 c5 -53 18 -91 65 -186 32 -66 65
-131 74 -145 9 -14 22 -43 29 -65 13 -41 45 -119 60 -145 7 -13 49 -15 265
-18 l256 -2 0 535 0 535 -27 6 c-49 10 -53 13 -53 34 0 22 -25 28 -34 8 -5
-10 -7 -10 -12 0 -3 6 -16 12 -29 12 -12 0 -28 7 -35 15 -7 9 -19 14 -26 11
-7 -3 -16 -1 -19 4 -4 6 -16 10 -28 10 -27 1 -60 24 -49 35 4 5 1 5 -6 1 -7
-4 -21 -4 -33 -1 -19 6 -19 8 -5 24 19 21 21 34 4 28 -19 -6 -48 11 -48 28 0
17 45 21 55 4 4 -6 19 -7 36 -4 15 4 61 7 101 9 40 1 81 7 92 13 17 9 15 12
-15 30 -19 11 -52 24 -74 28 -22 3 -53 13 -70 20 -16 7 -36 15 -42 17 -9 2 -5
12 10 32 22 28 25 28 63 17 68 -22 103 -41 139 -77 19 -19 41 -34 50 -34 10 0
15 -10 15 -29 0 -20 6 -30 20 -34 19 -5 20 1 17 440 -2 394 -4 446 -18 456 -9
7 -17 17 -18 22 -3 11 -92 116 -132 155 -77 74 -116 110 -122 110 -6 0 -14 6
-75 57 -14 12 -41 30 -59 40 -18 10 -33 23 -33 30 0 7 -10 13 -22 13 -19 0
-20 2 -8 10 22 14 28 13 54 -12 25 -25 24 -24 111 -82 69 -46 125 -95 126
-110 0 -6 33 -40 74 -76 40 -36 71 -68 69 -71 -2 -4 5 -14 16 -24 11 -10 20
-24 20 -32 0 -7 5 -13 10 -13 7 0 10 162 10 466 0 433 -1 468 -17 480 -17 13
-17 14 0 8 16 -6 17 8 17 195 l0 201 -790 0 c-608 0 -790 -3 -790 -12 0 -9 -3
-9 -12 0 -31 31 -38 2 -8 -35 34 -43 12 -40 -32 5 l-40 42 -719 0 -719 0 0
-2150z m1613 2122 c20 -2 40 -8 43 -14 4 -6 -12 -7 -42 -3 -64 8 -74 12 -74
26 0 7 7 8 18 3 9 -4 34 -9 55 -12z m212 -37 c28 -13 43 -24 35 -25 -9 0 -25
6 -36 14 -11 8 -41 17 -67 21 -26 4 -44 12 -41 17 8 12 46 3 109 -27z m-285
-36 c0 -6 13 -31 30 -55 24 -36 27 -46 15 -50 -8 -4 -15 -13 -15 -22 0 -33
-15 1 -17 40 -2 23 -7 44 -12 47 -14 10 -24 51 -12 51 6 0 11 -5 11 -11z m665
-9 c-3 -5 -14 -6 -25 -3 -11 3 -18 9 -15 13 3 5 14 6 25 3 11 -3 18 -9 15 -13z
m238 5 c9 -22 -12 -29 -39 -14 -18 9 -21 15 -12 21 20 12 45 9 51 -7z m-817
-5 c30 -12 103 -23 149 -23 17 0 24 -2 18 -4 -7 -3 -13 -11 -13 -19 0 -19 -34
-18 -51 2 -8 10 -22 14 -41 10 -15 -3 -30 -1 -33 4 -3 6 -14 10 -23 10 -9 1
-30 7 -47 15 -26 12 -27 13 -8 14 12 1 34 -4 49 -9z m269 0 c3 -5 1 -10 -4
-10 -6 0 -11 5 -11 10 0 6 2 10 4 10 3 0 8 -4 11 -10z m605 -81 c0 -18 -18 -9
-23 12 -4 16 -3 18 9 8 8 -6 14 -15 14 -20z m490 -3 c-11 -31 -38 -61 -46 -53
-3 3 3 14 14 25 11 11 23 30 27 42 4 12 9 20 11 17 3 -2 0 -16 -6 -31z m-1356
-76 c-3 -2 -9 2 -14 10 -7 12 -12 12 -21 3 -17 -17 -5 -26 31 -26 20 0 32 -6
36 -19 8 -25 -2 -34 -20 -18 -9 6 -31 12 -51 13 -22 1 -35 6 -35 14 0 7 5 13
10 13 6 0 10 7 10 15 0 8 5 15 10 15 6 0 10 8 10 18 0 14 4 12 20 -8 10 -14
16 -27 14 -30z m276 -64 c45 -30 98 -102 112 -154 19 -71 71 -163 97 -173 13
-6 29 -16 35 -24 6 -7 22 -15 36 -17 14 -2 23 -7 20 -13 -3 -5 -9 -9 -13 -7
-5 1 -6 -2 -2 -8 10 -16 -5 -12 -31 9 -13 10 -20 21 -17 25 3 3 -2 6 -13 6
-10 0 -30 3 -43 7 -24 6 -24 6 -17 -53 4 -32 7 -75 7 -94 0 -19 0 -48 0 -65 0
-16 3 -32 8 -35 5 -3 16 -32 26 -65 9 -33 20 -64 25 -70 12 -16 19 -55 11 -60
-9 -5 -31 38 -31 59 0 16 -58 124 -71 131 -5 4 -13 -5 -18 -18 -13 -33 -31
-44 -31 -19 0 23 -25 46 -40 37 -5 -3 -10 2 -10 13 0 21 33 53 73 70 31 13 35
30 10 39 -10 4 -25 16 -34 27 -15 19 -16 19 -47 -4 -25 -19 -32 -31 -32 -58 0
-29 -3 -33 -21 -27 -18 6 -20 3 -17 -18 2 -18 -7 -35 -34 -61 -46 -45 -59 -46
-51 -5 4 20 1 34 -7 39 -20 12 -4 43 19 37 14 -3 23 3 31 24 11 26 10 31 -11
49 -13 11 -43 29 -66 40 -48 24 -77 62 -68 90 3 11 -4 37 -16 62 -18 36 -20
47 -10 73 6 17 11 46 11 64 0 21 9 44 25 63 14 16 25 39 25 51 1 20 2 20 13 6
7 -9 37 -23 68 -32 58 -17 82 -36 93 -74 11 -36 29 -28 21 10 -9 39 -1 30 -55
61 -36 20 -41 26 -26 32 9 4 28 2 42 -4 22 -11 23 -10 11 8 -6 11 -34 29 -62
41 l-50 20 43 -5 c24 -2 61 -16 82 -30z m-282 -12 c6 -3 -11 -34 -20 -34 -5 0
-7 4 -3 9 3 5 1 12 -5 16 -5 3 -10 13 -10 22 0 13 3 13 18 2 9 -7 18 -14 20
-15z m-28 -118 c0 -8 6 -16 13 -19 8 -3 4 -13 -13 -31 -19 -21 -22 -29 -11
-35 9 -6 10 -11 2 -15 -16 -10 -14 -26 3 -26 17 0 29 -27 16 -35 -16 -10 -12
-35 11 -66 16 -23 21 -46 22 -99 1 -63 3 -69 19 -64 10 3 18 1 18 -5 0 -6 11
-11 23 -11 13 0 31 -8 40 -18 16 -18 15 -18 -36 -11 -28 4 -60 8 -71 8 -12 1
-16 6 -12 16 5 13 2 14 -17 3 -31 -17 -122 -28 -105 -13 7 6 32 17 56 24 28 8
46 20 51 34 10 27 -11 92 -44 132 -23 28 -25 28 -25 8 0 -22 -17 -40 -27 -29
-9 8 17 145 28 152 5 3 9 17 9 31 0 26 29 83 42 83 4 0 8 -6 8 -14z m1125
-106 c3 -5 1 -10 -4 -10 -6 0 -11 5 -11 10 0 6 2 10 4 10 3 0 8 -4 11 -10z
m-478 -164 c-4 -11 3 -16 26 -19 27 -3 26 -4 -10 -5 -23 -1 -45 3 -48 8 -3 6
1 10 9 10 9 0 16 5 16 10 0 6 3 10 6 10 3 0 4 -6 1 -14z m-710 -88 c-3 -7 -5
-2 -5 12 0 14 2 19 5 13 2 -7 2 -19 0 -25z m-1482 -8 c3 -5 1 -10 -4 -10 -6 0
-11 5 -11 10 0 6 2 10 4 10 3 0 8 -4 11 -10z m1895 0 c0 -5 -4 -10 -10 -10 -5
0 -10 5 -10 10 0 6 5 10 10 10 6 0 10 -4 10 -10z m857 -51 c-2 -28 15 -85 32
-108 15 -20 28 -24 72 -25 30 0 62 3 71 7 13 7 20 1 32 -22 19 -36 20 -53 3
-30 -9 12 -37 19 -94 24 -45 4 -88 12 -96 18 -23 19 -49 94 -34 101 9 5 9 7 0
12 -7 3 -13 22 -13 42 0 34 1 35 14 16 8 -11 14 -27 13 -35z m-2686 21 c32
-26 3 -27 -31 0 -19 15 -21 20 -9 20 9 0 27 -9 40 -20z m140 -60 c9 0 19 -6
22 -14 3 -8 16 -16 28 -18 24 -3 39 -28 17 -28 -27 1 -103 47 -106 66 -3 15
-1 17 9 7 7 -7 21 -13 30 -13z m217 -106 c31 -14 67 -27 78 -29 12 -1 35 -12
52 -23 16 -12 35 -22 41 -22 6 0 11 -7 11 -15 0 -8 4 -15 9 -15 5 0 18 -3 28
-6 13 -4 11 0 -7 15 l-25 21 23 0 c62 0 393 -223 367 -248 -4 -4 -10 -1 -12 6
-3 6 -20 12 -40 12 -30 0 -34 3 -28 20 4 14 1 22 -12 27 -10 3 -26 13 -35 21
-16 13 -18 13 -18 0 0 -9 12 -19 28 -23 15 -4 22 -9 16 -12 -24 -9 -64 16 -64
40 0 24 -42 53 -61 42 -5 -4 -9 0 -9 8 0 18 -24 29 -45 21 -8 -4 -15 -1 -15 6
0 6 -7 18 -15 26 -8 9 -15 11 -15 6 0 -11 -36 -22 -45 -14 -3 3 -18 8 -33 10
-15 2 -42 12 -60 23 -18 10 -46 19 -61 19 -20 0 -31 7 -39 26 -7 14 -16 23
-20 20 -5 -3 -21 2 -37 10 -15 8 -37 12 -49 9 -21 -6 -21 -6 -1 10 19 15 19
17 3 26 -10 6 -18 14 -18 19 0 11 23 3 108 -36z m1277 18 c-3 -3 -11 0 -18 7
-9 10 -8 11 6 5 10 -3 15 -9 12 -12z m-2 -9 c9 -3 17 -9 17 -14 0 -13 -44 -11
-58 3 -18 18 -15 31 6 23 9 -4 25 -10 35 -12z m57 -8 c-7 -8 -16 -12 -21 -9
-13 8 -1 24 18 24 13 0 13 -3 3 -15z m1257 -152 c-7 -6 -37 63 -36 84 0 10 9
-4 20 -31 11 -27 18 -50 16 -53z m-887 16 c0 -5 -7 -9 -15 -9 -15 0 -20 12 -9
23 8 8 24 -1 24 -14z m-1375 -59 c3 -5 1 -10 -4 -10 -6 0 -11 5 -11 10 0 6 2
10 4 10 3 0 8 -4 11 -10z m1520 -118 c-6 -7 -35 18 -35 31 0 5 9 2 20 -8 11
-10 18 -20 15 -23z m-1232 -17 c-7 -21 -13 -19 -13 6 0 11 4 18 10 14 5 -3 7
-12 3 -20z m64 -21 c-3 -3 -12 -4 -19 -1 -8 3 -5 6 6 6 11 1 17 -2 13 -5z m81
-32 c12 -8 21 -17 18 -19 -5 -5 -86 35 -86 43 0 8 41 -7 68 -24z m52 -21 c0
-13 -26 -32 -33 -24 -8 7 11 33 24 33 5 0 9 -4 9 -9z m1205 -61 c16 -16 24
-30 19 -30 -6 0 -23 14 -39 30 -16 17 -24 30 -19 30 6 0 23 -13 39 -30z
m-1110 -10 c4 -6 -7 -10 -24 -10 -17 0 -31 5 -31 10 0 6 11 10 24 10 14 0 28
-4 31 -10z m1210 -70 c3 -5 2 -10 -4 -10 -5 0 -13 5 -16 10 -3 6 -2 10 4 10 5
0 13 -4 16 -10z m70 -30 l20 -9 -20 0 c-11 0 -27 4 -35 9 -13 9 -13 10 0 9 8
0 24 -4 35 -9z m-1080 -20 c7 -21 0 -40 -15 -40 -5 0 -8 13 -7 30 2 34 13 39
22 10z m544 -220 c24 0 28 -18 6 -26 -12 -5 -13 -10 -4 -20 8 -10 15 -10 29
-2 22 14 47 -2 61 -39 9 -24 29 -32 29 -12 0 8 5 8 15 -1 8 -7 15 -18 15 -25
0 -8 6 -16 13 -18 6 -3 2 -6 -10 -6 -13 -1 -23 4 -23 9 0 6 -7 10 -15 10 -8 0
-23 4 -33 9 -62 30 -91 42 -119 47 -27 5 -33 11 -33 31 0 20 4 23 20 18 23 -7
28 13 5 21 -8 4 -15 10 -15 15 0 6 8 5 19 -1 11 -5 29 -10 40 -10z m-1105 -74
c32 -29 32 -33 4 -30 -13 1 -27 3 -31 3 -5 1 -7 7 -4 14 2 6 -8 17 -22 24
l-26 11 27 1 c15 1 38 -9 52 -23z m1727 -61 c39 -17 69 -39 69 -50 0 -13 -161
4 -212 23 -27 9 -48 20 -48 24 0 7 44 13 121 16 20 1 52 -5 70 -13z m-2111
-46 c0 -6 -4 -7 -10 -4 -5 3 -10 11 -10 16 0 6 5 7 10 4 6 -3 10 -11 10 -16z
m1497 -14 c15 -19 36 -35 45 -35 9 0 20 -5 23 -10 4 -6 10 -8 15 -5 5 3 12 0
15 -6 5 -7 -4 -9 -27 -5 -45 7 -68 16 -68 27 0 4 -11 19 -25 33 -27 27 -31 36
-15 36 5 0 22 -16 37 -35z m-1346 -101 c17 -21 -5 -17 -32 5 -24 20 -24 20 -2
14 12 -3 28 -11 34 -19z m620 -20 c9 -11 9 -21 0 -41 -16 -37 -166 -193 -186
-193 -11 0 -15 -7 -13 -22 2 -11 -3 -23 -9 -25 -7 -3 -13 3 -13 12 0 13 -6 15
-31 10 -30 -7 -31 -6 -24 16 4 13 8 33 10 44 8 63 87 147 197 211 23 13 52 8
69 -12z m1309 -154 c0 -5 -4 -10 -9 -10 -6 0 -13 5 -16 10 -3 6 1 10 9 10 9 0
16 -4 16 -10z m-253 -576 c23 -19 46 -34 52 -34 6 0 8 -7 5 -15 -5 -11 -2 -13
10 -9 9 3 16 2 16 -4 0 -5 -6 -12 -14 -15 -18 -7 -94 45 -89 61 3 6 0 12 -7
12 -17 0 -70 42 -64 52 7 11 39 -6 91 -48z m151 -125 c37 -33 37 -33 5 -43
-22 -7 -28 1 -24 27 0 4 -5 7 -13 7 -21 0 -40 27 -24 33 20 8 21 8 56 -24z
m-450 -10 c-5 -14 -21 -14 -26 0 -2 6 4 11 13 11 9 0 15 -5 13 -11z m553 -91
c6 -10 6 -18 1 -18 -16 0 -62 49 -62 66 0 15 4 14 26 -7 14 -13 30 -32 35 -41z
m-181 -18 c24 -15 7 -19 -20 -5 -15 8 -19 14 -10 14 8 1 22 -3 30 -9z m-643
-69 c3 -11 16 -22 29 -25 13 -4 24 -13 24 -21 0 -8 -2 -15 -5 -15 -9 0 -75 62
-75 71 0 17 22 9 27 -10z m128 -73 c7 -8 2 -9 -15 -4 -14 3 -31 6 -37 6 -7 0
-13 5 -13 11 0 13 50 3 65 -13z m85 -54 c25 -24 -13 -17 -41 7 l-24 21 25 -7
c14 -4 32 -13 40 -21z m43 -38 c9 -7 17 -16 17 -20 0 -13 -28 -5 -45 14 -21
24 -1 28 28 6z m462 -33 c35 -17 46 -33 23 -33 -14 1 -78 50 -66 50 4 0 23 -8
43 -17z m-330 -33 c3 -5 2 -10 -4 -10 -5 0 -13 5 -16 10 -3 6 -2 10 4 10 5 0
13 -4 16 -10z"/>
<path d="M1893 3790 c-29 -12 -29 -26 -2 -40 24 -13 24 -13 33 23 7 29 4 31
-31 17z m17 -20 c0 -5 -4 -10 -9 -10 -6 0 -13 5 -16 10 -3 6 1 10 9 10 9 0 16
-4 16 -10z"/>
<path d="M1778 3783 c7 -3 16 -2 19 1 4 3 -2 6 -13 5 -11 0 -14 -3 -6 -6z"/>
<path d="M1711 3755 c9 -9 23 -13 32 -9 28 10 19 24 -15 24 -29 0 -31 -2 -17
-15z"/>
<path d="M1785 3609 c-8 -12 22 -49 39 -49 13 0 46 36 46 50 0 13 -77 13 -85
-1z"/>
<path d="M570 3215 c0 -9 6 -12 15 -9 8 4 12 10 9 15 -8 14 -24 10 -24 -6z"/>
<path d="M1236 2019 c-14 -17 -26 -37 -26 -46 0 -14 3 -14 22 -1 12 8 33 29
46 46 24 31 24 32 4 32 -11 0 -32 -14 -46 -31z"/>
<path d="M3073 2000 c-12 -5 -49 -8 -82 -7 -33 1 -64 -2 -68 -6 -15 -16 15
-41 71 -60 38 -13 60 -26 66 -41 5 -11 9 -15 9 -8 1 6 10 12 21 12 18 0 20 7
20 60 0 63 -1 64 -37 50z"/>
<path d="M2817 1983 c-14 -14 -6 -24 13 -18 12 4 31 0 45 -9 21 -14 24 -14 29
1 4 9 1 20 -6 25 -16 9 -72 11 -81 1z"/>
</g>
</svg>
